<svg class="block header-dark:hidden header-dark-open:block xl:header-dark-open:hidden w-22.5 xl:w-31.5
        h-auto" width="126" height="34" viewBox="0 0 126 34" fill="none" xmlns="http://www.w3.org/2000/svg">
<path d="M98.0963 19.5534C97.9625 18.8334 97.7629 18.1266 97.4999 17.4419C96.9809 16.0766 96.185 14.8296 95.1606 13.7766C94.1044 12.6983 92.8409 11.8372 91.4435 11.2435C89.8841 10.6087 88.2085 10.2964 86.5211 10.3262C84.8161 10.2974 83.123 10.6095 81.5441 11.2435C80.1227 11.8271 78.8367 12.6889 77.7641 13.7766C76.7245 14.8455 75.9159 16.1106 75.3869 17.4956C74.8289 18.9193 74.5441 20.4325 74.5469 21.9584C74.5417 23.455 74.8268 24.9389 75.3869 26.3303C75.9366 27.7127 76.7662 28.9706 77.8254 30.0276C78.8846 31.0847 80.1513 31.9187 81.5483 32.4791C83.1054 33.1018 84.7733 33.4123 86.4539 33.3923C88.7399 33.4418 90.9955 32.8698 92.9723 31.7394C94.7101 30.7595 96.1177 29.2998 97.0211 27.541L97.2983 26.9749L92.1029 25.5534L91.8845 25.8344C91.1576 26.7707 90.1882 27.4975 89.0779 27.9389C87.9676 28.3803 86.7572 28.5201 85.5732 28.3435C84.3892 28.167 83.2752 27.6806 82.3477 26.9354C81.4202 26.1901 80.7133 25.2133 80.3009 24.1072H98.0711L98.1677 23.6939C98.2349 23.4049 98.2729 23.1101 98.2811 22.8138C98.2811 22.4749 98.2811 22.1237 98.2811 21.7766C98.2817 21.0379 98.2142 20.3008 98.0795 19.5741L98.0963 19.5534ZM86.5631 15.2642C87.8093 15.2683 89.0298 15.6132 90.0882 16.2605C91.1466 16.9078 92.0012 17.8318 92.5565 18.9295H80.5697C81.1251 17.8318 81.9797 16.9078 83.0381 16.2605C84.0965 15.6132 85.317 15.2683 86.5631 15.2642Z" fill="black"></path>
<path d="M47.3609 19.5548C47.227 18.8347 47.0274 18.128 46.7645 17.4432C46.2455 16.078 45.4495 14.8309 44.4251 13.7779C43.3681 12.7006 42.1048 11.8397 40.7081 11.2449C39.1472 10.6035 37.4686 10.2855 35.7773 10.311C34.0739 10.2886 32.3837 10.6063 30.8087 11.2449C29.3872 11.8285 28.1012 12.6903 27.0287 13.7779C25.9878 14.8467 25.1777 16.1118 24.6473 17.4969C24.0984 18.9225 23.8208 20.4353 23.8283 21.9597C23.8251 23.4562 24.1101 24.9396 24.6683 26.3316C25.2196 27.713 26.0498 28.9701 27.1088 30.027C28.1678 31.0838 29.4336 31.9184 30.8297 32.4804C32.3867 33.1032 34.0546 33.4136 35.7353 33.3936C38.0226 33.4435 40.2796 32.8715 42.2579 31.7407C43.9854 30.7524 45.3801 29.2869 46.2689 27.5259L46.5503 26.9597L41.3549 25.5548L41.1365 25.8358C40.409 26.7719 39.4393 27.4985 38.3287 27.9398C37.2181 28.381 36.0075 28.5207 34.8233 28.3442C33.6391 28.1677 32.5249 27.6814 31.597 26.9363C30.6691 26.1912 29.9617 25.2146 29.5487 24.1085H47.3189L47.4197 23.6953C47.4926 23.3946 47.532 23.087 47.5373 22.7779C47.5373 22.4391 47.5373 22.0878 47.5373 21.7407C47.5392 21.0022 47.4731 20.265 47.3399 19.5383L47.3609 19.5548ZM29.8175 18.9308C30.369 17.8301 31.2227 16.9033 32.2819 16.2552C33.3411 15.6071 34.5635 15.2636 35.8109 15.2636C37.0582 15.2636 38.2806 15.6071 39.3398 16.2552C40.399 16.9033 41.2527 17.8301 41.8043 18.9308H29.8175Z" fill="black"></path>
<path d="M15.4854 15.2889L10.92 13.4128C8.5218 12.4541 6.2622 11.5451 6.2622 9.21861C6.2622 7.04918 8.253 5.64423 11.3316 5.64423C12.182 5.64261 13.0291 5.74957 13.8516 5.96241L13.9188 5.9996H13.9566C14.0322 6.02439 14.1036 6.04918 14.1708 6.07811H14.2002L14.2632 6.09877L14.4396 6.17728L14.5236 6.21447L14.6538 6.27232C14.7798 6.33018 14.9016 6.39216 15.0024 6.45001L15.204 6.56158L15.3342 6.64423L15.5274 6.76406L15.6618 6.8591C15.8662 6.99948 16.0612 7.15269 16.2456 7.31778C16.5196 7.55957 16.7725 7.82359 17.0016 8.10703L17.2452 8.39216L17.5812 8.28059L22.4322 7.00373L22.1382 6.42935C21.2347 4.70811 19.8331 3.28886 18.1104 2.35084C16.6859 1.55613 15.1104 1.05821 13.482 0.888026C12.7757 0.756749 12.0588 0.688976 11.34 0.685547C8.3706 0.685547 5.6532 1.55332 3.6792 3.13183C2.70485 3.88195 1.91651 4.84011 1.37373 5.93394C0.83094 7.02777 0.547904 8.22865 0.546 9.44588C0.546 13.2517 2.8014 16.0203 7.4424 17.9004L11.9868 19.8013C14.7588 20.9459 16.7622 21.7765 16.7622 24.3467C16.7622 26.917 14.5446 28.417 10.9788 28.417C10.7016 28.417 10.4328 28.417 10.1892 28.417C9.52988 28.3578 8.88231 28.2076 8.2656 27.9707L8.1774 27.9376L8.0976 27.9004L7.98 27.826L7.9044 27.793H7.875L7.7742 27.7434C7.6608 27.6897 7.5432 27.6318 7.413 27.5575L7.3458 27.5203L7.2618 27.4748H7.2324L7.0896 27.3591L6.9006 27.2393L6.783 27.1566C6.5772 27.012 6.3882 26.855 6.1992 26.6938C5.92285 26.4396 5.66856 26.1632 5.439 25.8674L5.2038 25.5822L4.8594 25.6938L0 26.9872L0.2898 27.5616C0.485681 27.9553 0.711733 28.3338 0.966 28.6938L1.0416 28.8219L1.1634 28.9624C2.01994 30.0689 3.09228 30.9961 4.3176 31.6897C5.36079 32.2916 6.49511 32.7254 7.6776 32.9748L7.7364 32.9996H7.791C8.80831 33.2514 9.85426 33.3736 10.9032 33.3632C14.2884 33.3632 17.2032 32.4376 19.3032 30.6897C20.3037 29.8864 21.1099 28.8742 21.6635 27.7263C22.217 26.5785 22.504 25.3238 22.5036 24.0533C22.5036 18.8591 18.9546 16.7145 15.4854 15.3013V15.2889ZM1.407 28.4087V28.388V28.4087Z" fill="black"></path>
<path d="M116.992 33.489H110.986L105.98 26.0386L100.94 33.489H94.9046L102.998 22.1129L94.6484 10.4229H100.68L116.992 33.489Z" fill="black"></path>
<path d="M67.0062 0.5V12.0909C65.1367 10.8425 62.9277 10.1785 60.6684 10.186C54.2928 10.186 49.1016 15.4132 49.1016 21.843C49.1016 28.2727 54.2928 33.5 60.6684 33.5C62.9277 33.5074 65.1367 32.8435 67.0062 31.595V33.405H72.7644V0.5H67.0062ZM60.6684 15.4298C61.9647 15.3944 63.2422 15.7403 64.3377 16.4231C65.4331 17.106 66.2966 18.0948 66.8178 19.2631C67.339 20.4314 67.4941 21.7261 67.2633 22.9816C67.0326 24.2372 66.4265 25.3964 65.5224 26.3112C64.6184 27.226 63.4577 27.8546 62.1885 28.1168C60.9194 28.379 59.5996 28.2628 58.398 27.7831C57.1964 27.3034 56.1675 26.4819 55.4429 25.4237C54.7183 24.3656 54.3311 23.1189 54.3306 21.843C54.3092 20.1664 54.9644 18.5499 56.1524 17.3477C57.3404 16.1456 58.9644 15.4559 60.6684 15.4298Z" fill="black"></path>
<path d="M115.374 0.834974C113.396 0.834549 111.457 1.37752 109.776 2.40273C108.095 3.42794 106.738 4.89466 105.858 6.63767C104.979 8.38068 104.611 10.3307 104.797 12.2682C104.983 14.2056 105.715 16.0535 106.911 17.6036L111.972 10.1201H117.621L110.271 20.4507C111.692 21.2192 113.272 21.6576 114.892 21.7325C116.511 21.8074 118.127 21.5167 119.614 20.8827C121.102 20.2487 122.422 19.2882 123.475 18.0748C124.527 16.8613 125.283 15.427 125.685 13.8818C126.087 12.3365 126.124 10.7213 125.794 9.15968C125.464 7.59807 124.774 6.13152 123.779 4.8723C122.784 3.61309 121.509 2.5946 120.052 1.89481C118.596 1.19503 116.995 0.832494 115.374 0.834974Z" fill="#FF025C"></path>
</svg>