<?xml version="1.0" encoding="iso-8859-1"?>
<!-- Uploaded to: SVG Repo, www.svgrepo.com, Generator: SVG Repo Mixer Tools -->
<svg fill="green" height="800px" width="800px" version="1.1" id="Layer_1" xmlns="http://www.w3.org/2000/svg" xmlns:xlink="http://www.w3.org/1999/xlink" 
	 viewBox="0 0 512 512" xml:space="preserve">
<g>
	<g>
		<path d="M342.984,320.439h-9.54c-5.632,0-10.199,4.567-10.199,10.199s4.567,10.199,10.199,10.199h9.54
			c5.632,0,10.199-4.567,10.199-10.199S348.617,320.439,342.984,320.439z"/>
	</g>
</g>
<g>
	<g>
		<path d="M473.741,148.715h-7.759V33.208c0-5.632-4.567-10.199-10.199-10.199h-72.954H10.199C4.566,23.009,0,27.576,0,33.208
			v372.63v72.954c0,5.632,4.566,10.199,10.199,10.199h372.63c5.632,0,10.199-4.567,10.199-10.199v-62.755h62.755
			c5.632,0,10.199-4.567,10.199-10.199V290.33h7.758c21.096,0,38.259-17.163,38.259-38.259v-65.097
			C512,165.878,494.837,148.715,473.741,148.715z M372.63,468.592H20.398v-52.555H372.63V468.592z M372.63,395.638H20.398v-54.8
			H294.16c5.632,0,10.199-4.567,10.199-10.199s-4.567-10.199-10.199-10.199H20.398v-53.305H372.63V395.638z M372.63,246.736H20.398
			V193.43H372.63V246.736z M372.63,173.032H20.398v-53.304H372.63V173.032z M372.63,99.331H20.398V43.407H372.63V99.331z
			 M445.584,395.638h-52.555V43.407h52.555V395.638z M491.602,252.071c0,9.848-8.011,17.861-17.861,17.861h-7.759V169.112h7.759
			c9.848,0,17.861,8.011,17.861,17.861V252.071z"/>
	</g>
</g>
</svg>