<?xml version="1.0" encoding="iso-8859-1"?>
<!-- Uploaded to: SVG Repo, www.svgrepo.com, Generator: SVG Repo Mixer Tools -->
<svg fill="green" height="800px" width="800px" version="1.1" id="Capa_1" xmlns="http://www.w3.org/2000/svg" xmlns:xlink="http://www.w3.org/1999/xlink" 
	 viewBox="0 0 55 55" xml:space="preserve">
<g>
	<g>
		<path d="M49.382,17.25c-0.403-0.171-0.872-0.057-1.153,0.28c-1.284,1.533-3.213,2.413-5.292,2.413
			c-2.646,0-5.056-1.462-6.137-3.724c-0.172-0.357-0.536-0.611-0.935-0.567c-0.397,0.013-0.749,0.259-0.896,0.628
			c-1.16,2.9-4.162,4.849-7.469,4.849s-6.309-1.948-7.469-4.849c-0.147-0.369-0.499-0.615-0.896-0.628
			c-0.41-0.044-0.763,0.21-0.935,0.567c-1.081,2.262-3.49,3.724-6.137,3.724c-2.079,0-4.008-0.88-5.292-2.413
			c-0.282-0.337-0.75-0.451-1.153-0.28c-0.404,0.169-0.651,0.582-0.608,1.019l3.495,35.828C8.555,54.609,8.985,55,9.5,55h36
			c0.515,0,0.945-0.391,0.995-0.903l3.495-35.828C50.033,17.832,49.786,17.419,49.382,17.25z M44.593,53H10.407L7.243,20.566
			c1.409,0.891,3.075,1.377,4.82,1.377c2.763,0,5.333-1.251,6.96-3.295c1.798,2.736,5.006,4.48,8.477,4.48s6.679-1.744,8.477-4.48
			c1.627,2.044,4.197,3.295,6.96,3.295c1.745,0,3.411-0.486,4.82-1.377L44.593,53z"/>
		<path d="M18.5,33c-0.553,0-1,0.447-1,1c0,1.103-0.897,2-2,2s-2-0.897-2-2c0-0.553-0.447-1-1-1s-1,0.447-1,1c0,2.206,1.794,4,4,4
			s4-1.794,4-4C19.5,33.447,19.053,33,18.5,33z"/>
		<path d="M33.5,40c-0.553,0-1,0.447-1,1c0,1.103-0.898,2-2,2s-2-0.897-2-2c0-0.553-0.447-1-1-1s-1,0.447-1,1c0,2.206,1.794,4,4,4
			s4-1.794,4-4C34.5,40.447,34.053,40,33.5,40z"/>
		<path d="M35.5,26c-2.206,0-4,1.794-4,4s1.794,4,4,4s4-1.794,4-4S37.706,26,35.5,26z M35.5,32c-1.103,0-2-0.897-2-2s0.897-2,2-2
			s2,0.897,2,2S36.603,32,35.5,32z"/>
		<path d="M11.25,9h1.5c0.415,0,0.75-0.335,0.75-0.75v-1.5C13.5,6.335,13.165,6,12.75,6h-1.5c-0.415,0-0.75,0.335-0.75,0.75v1.5
			C10.5,8.665,10.835,9,11.25,9z"/>
		<path d="M15.25,3h1.5c0.415,0,0.75-0.335,0.75-0.75v-1.5C17.5,0.335,17.165,0,16.75,0h-1.5c-0.415,0-0.75,0.335-0.75,0.75v1.5
			C14.5,2.665,14.835,3,15.25,3z"/>
		<path d="M21.25,12h1.5c0.415,0,0.75-0.335,0.75-0.75v-1.5C23.5,9.335,23.165,9,22.75,9h-1.5c-0.415,0-0.75,0.335-0.75,0.75v1.5
			C20.5,11.665,20.835,12,21.25,12z"/>
		<path d="M26.25,5h1.5c0.415,0,0.75-0.335,0.75-0.75v-1.5C28.5,2.335,28.165,2,27.75,2h-1.5c-0.415,0-0.75,0.335-0.75,0.75v1.5
			C25.5,4.665,25.835,5,26.25,5z"/>
	</g>
</g>
</svg>